<svg width="16" height="20" viewBox="0 0 16 20" fill="none" xmlns="http://www.w3.org/2000/svg">
<path d="M7.141 2C5.559 2 4.754 2.169 4.013 2.565C3.39502 2.89015 2.89015 3.39502 2.565 4.013C2.169 4.753 2 5.559 2 7.14V12.858C2 14.44 2.169 15.245 2.565 15.986C2.902 16.616 3.383 17.097 4.013 17.434C4.753 17.83 5.559 17.999 7.141 17.999H8.859C10.441 17.999 11.246 17.83 11.987 17.434C12.605 17.1089 13.1098 16.604 13.435 15.986C13.831 15.246 14 14.44 14 12.858V7.14C14 5.558 13.831 4.753 13.435 4.012C13.1098 3.39402 12.605 2.88915 11.987 2.564C11.247 2.169 10.441 2 8.86 2H7.14H7.141ZM7.141 0H8.859C10.873 0 11.953 0.278 12.931 0.801C13.8973 1.31249 14.6875 2.10269 15.199 3.069C15.722 4.047 16 5.127 16 7.141V12.859C16 14.873 15.722 15.953 15.199 16.931C14.6875 17.8973 13.8973 18.6875 12.931 19.199C11.953 19.722 10.873 20 8.859 20H7.14C5.126 20 4.046 19.722 3.068 19.199C2.10169 18.6875 1.31149 17.8973 0.8 16.931C0.278 15.953 0 14.873 0 12.859V7.14C0 5.126 0.278 4.046 0.801 3.068C1.31292 2.10192 2.10347 1.31206 3.07 0.801C4.047 0.278 5.127 0 7.141 0ZM7 4H9V9H7V4Z" fill="white"/>
</svg>
