<svg width="36" height="36" viewBox="0 0 36 36" fill="none" xmlns="http://www.w3.org/2000/svg">
<rect width="36" height="36" rx="10" fill="#18E62C"/>
<path d="M18 28C12.477 28 8 23.523 8 18C8 12.477 12.477 8 18 8C23.523 8 28 12.477 28 18C28 23.523 23.523 28 18 28ZM18 26C20.1217 26 22.1566 25.1571 23.6569 23.6569C25.1571 22.1566 26 20.1217 26 18C26 15.8783 25.1571 13.8434 23.6569 12.3431C22.1566 10.8429 20.1217 10 18 10C15.8783 10 13.8434 10.8429 12.3431 12.3431C10.8429 13.8434 10 15.8783 10 18C10 20.1217 10.8429 22.1566 12.3431 23.6569C13.8434 25.1571 15.8783 26 18 26ZM14.5 20H20C20.1326 20 20.2598 19.9473 20.3536 19.8536C20.4473 19.7598 20.5 19.6326 20.5 19.5C20.5 19.3674 20.4473 19.2402 20.3536 19.1464C20.2598 19.0527 20.1326 19 20 19H16C15.337 19 14.7011 18.7366 14.2322 18.2678C13.7634 17.7989 13.5 17.163 13.5 16.5C13.5 15.837 13.7634 15.2011 14.2322 14.7322C14.7011 14.2634 15.337 14 16 14H17V12H19V14H21.5V16H16C15.8674 16 15.7402 16.0527 15.6464 16.1464C15.5527 16.2402 15.5 16.3674 15.5 16.5C15.5 16.6326 15.5527 16.7598 15.6464 16.8536C15.7402 16.9473 15.8674 17 16 17H20C20.663 17 21.2989 17.2634 21.7678 17.7322C22.2366 18.2011 22.5 18.837 22.5 19.5C22.5 20.163 22.2366 20.7989 21.7678 21.2678C21.2989 21.7366 20.663 22 20 22H19V24H17V22H14.5V20Z" fill="white"/>
</svg>
