<svg width="52" height="52" viewBox="0 0 52 52" fill="none" xmlns="http://www.w3.org/2000/svg">
<rect width="52" height="52" rx="10" fill="#5A4EEC"/>
<path d="M26 36C20.477 36 16 31.523 16 26C16 20.477 20.477 16 26 16C31.523 16 36 20.477 36 26C36 31.523 31.523 36 26 36ZM21 26C21 27.3261 21.5268 28.5979 22.4645 29.5355C23.4021 30.4732 24.6739 31 26 31C27.3261 31 28.5979 30.4732 29.5355 29.5355C30.4732 28.5979 31 27.3261 31 26H29C29 26.7956 28.6839 27.5587 28.1213 28.1213C27.5587 28.6839 26.7956 29 26 29C25.2044 29 24.4413 28.6839 23.8787 28.1213C23.3161 27.5587 23 26.7956 23 26H21Z" fill="white"/>
</svg>
