<svg width="52" height="52" viewBox="0 0 52 52" fill="none" xmlns="http://www.w3.org/2000/svg">
<rect width="52" height="52" rx="10" fill="#5A4EEC"/>
<path d="M31 22H34L37 26.056V32H34.965C34.8461 32.8343 34.4302 33.5977 33.7937 34.1499C33.1571 34.7022 32.3427 35.0063 31.5 35.0063C30.6573 35.0063 29.8429 34.7022 29.2063 34.1499C28.5698 33.5977 28.1539 32.8343 28.035 32H22.965C22.8461 32.8343 22.4302 33.5977 21.7937 34.1499C21.1571 34.7022 20.3427 35.0063 19.5 35.0063C18.6573 35.0063 17.8429 34.7022 17.2063 34.1499C16.5698 33.5977 16.1539 32.8343 16.035 32H15V20C15 19.7348 15.1054 19.4804 15.2929 19.2929C15.4804 19.1054 15.7348 19 16 19H30C30.2652 19 30.5196 19.1054 30.7071 19.2929C30.8946 19.4804 31 19.7348 31 20V22ZM31 24V27H35V26.715L32.992 24H31Z" fill="white"/>
</svg>
