<svg width="143" height="41" viewBox="0 0 143 41" fill="none" xmlns="http://www.w3.org/2000/svg">
<circle cx="71.4779" cy="20.2533" r="20.2533" fill="#A9A8A8"/>
<path d="M7.07407 34.3989C10.2227 34.3989 12.2617 33.0257 13.302 31.0422H13.4685V33.9967H19.0722V19.6266C19.0722 14.5499 14.7723 12.4138 10.0285 12.4138C4.92411 12.4138 1.56739 14.8551 0.749019 18.7389L6.21408 19.1827C6.61633 17.7679 7.87857 16.7276 10.0008 16.7276C12.012 16.7276 13.1633 17.7402 13.1633 19.4879V19.5711C13.1633 20.9443 11.7069 21.1246 8.00341 21.4853C3.78671 21.8737 0 23.2885 0 28.0461C0 32.2628 3.00995 34.3989 7.07407 34.3989ZM8.76629 30.3209C6.94923 30.3209 5.64538 29.4748 5.64538 27.8519C5.64538 26.1874 7.01858 25.3691 9.09919 25.0778C10.3892 24.8975 12.4975 24.5923 13.2049 24.1207V26.3816C13.2049 28.6148 11.3601 30.3209 8.76629 30.3209Z" fill="white"/>
<path d="M35.1137 12.6912H30.8832V11.2626C30.8832 9.82 31.4657 8.97388 33.1996 8.97388C33.907 8.97388 34.6283 9.12646 35.0999 9.27904L36.1402 4.84041C35.405 4.61848 33.7821 4.25784 31.9651 4.25784C27.9564 4.25784 24.9742 6.51877 24.9742 11.1516V12.6912H21.9643V17.1299H24.9742V33.9967H30.8832V17.1299H35.1137V12.6912Z" fill="white"/>
<path d="M50.1808 12.6912H45.9502V11.2626C45.9502 9.82 46.5328 8.97388 48.2666 8.97388C48.974 8.97388 49.6953 9.12646 50.1669 9.27904L51.2072 4.84041C50.4721 4.61848 48.8492 4.25784 47.0321 4.25784C43.0235 4.25784 40.0413 6.51877 40.0413 11.1516V12.6912H37.0314V17.1299H40.0413V33.9967H45.9502V17.1299H50.1808V12.6912Z" fill="white"/>
<path d="M53.7906 33.9967H59.6996V12.6912H53.7906V33.9967ZM56.759 9.94483C58.5206 9.94483 59.9631 8.59937 59.9631 6.94876C59.9631 5.31201 58.5206 3.96655 56.759 3.96655C55.0113 3.96655 53.5687 5.31201 53.5687 6.94876C53.5687 8.59937 55.0113 9.94483 56.759 9.94483Z" fill="white"/>
<path d="M70.3419 5.58943H64.433V33.9967H70.3419V5.58943Z" fill="white"/>
<path d="M75.0753 33.9967H80.9842V12.6912H75.0753V33.9967ZM78.0436 9.94483C79.8052 9.94483 81.2477 8.59937 81.2477 6.94876C81.2477 5.31201 79.8052 3.96655 78.0436 3.96655C76.2959 3.96655 74.8533 5.31201 74.8533 6.94876C74.8533 8.59937 76.2959 9.94483 78.0436 9.94483Z" fill="white"/>
<path d="M91.793 34.3989C94.9416 34.3989 96.9806 33.0257 98.0209 31.0422H98.1874V33.9967H103.791V19.6266C103.791 14.5499 99.4912 12.4138 94.7474 12.4138C89.643 12.4138 86.2863 14.8551 85.4679 18.7389L90.933 19.1827C91.3352 17.7679 92.5975 16.7276 94.7197 16.7276C96.7309 16.7276 97.8822 17.7402 97.8822 19.4879V19.5711C97.8822 20.9443 96.4258 21.1246 92.7223 21.4853C88.5056 21.8737 84.7189 23.2885 84.7189 28.0461C84.7189 32.2628 87.7288 34.3989 91.793 34.3989ZM93.4852 30.3209C91.6681 30.3209 90.3643 29.4748 90.3643 27.8519C90.3643 26.1874 91.7375 25.3691 93.8181 25.0778C95.1081 24.8975 97.2164 24.5923 97.9238 24.1207V26.3816C97.9238 28.6148 96.079 30.3209 93.4852 30.3209Z" fill="white"/>
<path d="M119.708 12.6912H115.699V7.58681H109.79V12.6912H106.877V17.1299H109.79V28.2264C109.762 32.4015 112.606 34.4683 116.892 34.2879C118.418 34.2325 119.5 33.9273 120.096 33.7331L119.167 29.3361C118.876 29.3916 118.251 29.5303 117.697 29.5303C116.518 29.5303 115.699 29.0864 115.699 27.4497V17.1299H119.708V12.6912Z" fill="white"/>
<path d="M133.038 34.4128C138.308 34.4128 141.859 31.8467 142.692 27.8935L137.227 27.5329C136.63 29.1558 135.104 30.0019 133.135 30.0019C130.18 30.0019 128.308 28.0461 128.308 24.8697V24.8559H142.816V23.233C142.816 15.9925 138.433 12.4138 132.802 12.4138C126.532 12.4138 122.468 16.8663 122.468 23.441C122.468 30.1961 126.477 34.4128 133.038 34.4128ZM128.308 21.194C128.432 18.7666 130.277 16.8247 132.899 16.8247C135.465 16.8247 137.24 18.6556 137.254 21.194H128.308Z" fill="white"/>
</svg>
