<svg width="143" height="41" viewBox="0 0 143 41" fill="none" xmlns="http://www.w3.org/2000/svg">
<circle cx="71.4779" cy="20.2533" r="20.2533" fill="#A9A8A8"/>
<path d="M7.07407 34.3988C10.2227 34.3988 12.2617 33.0256 13.302 31.0421H13.4685V33.9966H19.0722V19.6265C19.0722 14.5499 14.7723 12.4138 10.0285 12.4138C4.92411 12.4138 1.56739 14.855 0.749019 18.7388L6.21408 19.1827C6.61633 17.7679 7.87857 16.7276 10.0008 16.7276C12.012 16.7276 13.1633 17.7401 13.1633 19.4878V19.5711C13.1633 20.9443 11.7069 21.1246 8.00341 21.4852C3.78671 21.8736 0 23.2884 0 28.0461C0 32.2628 3.00995 34.3988 7.07407 34.3988ZM8.76629 30.3209C6.94923 30.3209 5.64538 29.4747 5.64538 27.8519C5.64538 26.1874 7.01858 25.369 9.09919 25.0777C10.3892 24.8974 12.4975 24.5923 13.2049 24.1206V26.3816C13.2049 28.6148 11.3601 30.3209 8.76629 30.3209Z" fill="#5A4EEC"/>
<path d="M35.1137 12.6912H30.8832V11.2625C30.8832 9.81994 31.4657 8.97382 33.1996 8.97382C33.907 8.97382 34.6283 9.1264 35.0999 9.27898L36.1402 4.84035C35.405 4.61842 33.7821 4.25778 31.9651 4.25778C27.9564 4.25778 24.9742 6.51871 24.9742 11.1515V12.6912H21.9643V17.1298H24.9742V33.9966H30.8832V17.1298H35.1137V12.6912Z" fill="#5A4EEC"/>
<path d="M50.1808 12.6912H45.9502V11.2625C45.9502 9.81994 46.5328 8.97382 48.2666 8.97382C48.974 8.97382 49.6953 9.1264 50.1669 9.27898L51.2072 4.84035C50.4721 4.61842 48.8492 4.25778 47.0321 4.25778C43.0235 4.25778 40.0413 6.51871 40.0413 11.1515V12.6912H37.0314V17.1298H40.0413V33.9966H45.9502V17.1298H50.1808V12.6912Z" fill="#5A4EEC"/>
<path d="M53.7906 33.9966H59.6996V12.6912H53.7906V33.9966ZM56.759 9.94477C58.5206 9.94477 59.9631 8.59931 59.9631 6.9487C59.9631 5.31195 58.5206 3.96649 56.759 3.96649C55.0113 3.96649 53.5687 5.31195 53.5687 6.9487C53.5687 8.59931 55.0113 9.94477 56.759 9.94477Z" fill="#5A4EEC"/>
<path d="M70.3419 5.58937H64.433V33.9966H70.3419V5.58937Z" fill="#5A4EEC"/>
<path d="M75.0753 33.9966H80.9842V12.6912H75.0753V33.9966ZM78.0436 9.94477C79.8052 9.94477 81.2477 8.59931 81.2477 6.9487C81.2477 5.31195 79.8052 3.96649 78.0436 3.96649C76.2959 3.96649 74.8533 5.31195 74.8533 6.9487C74.8533 8.59931 76.2959 9.94477 78.0436 9.94477Z" fill="#5A4EEC"/>
<path d="M91.793 34.3988C94.9416 34.3988 96.9806 33.0256 98.0209 31.0421H98.1874V33.9966H103.791V19.6265C103.791 14.5499 99.4912 12.4138 94.7474 12.4138C89.643 12.4138 86.2863 14.855 85.4679 18.7388L90.933 19.1827C91.3352 17.7679 92.5975 16.7276 94.7197 16.7276C96.7309 16.7276 97.8822 17.7401 97.8822 19.4878V19.5711C97.8822 20.9443 96.4258 21.1246 92.7223 21.4852C88.5056 21.8736 84.7189 23.2884 84.7189 28.0461C84.7189 32.2628 87.7288 34.3988 91.793 34.3988ZM93.4852 30.3209C91.6681 30.3209 90.3643 29.4747 90.3643 27.8519C90.3643 26.1874 91.7375 25.369 93.8181 25.0777C95.1081 24.8974 97.2164 24.5923 97.9238 24.1206V26.3816C97.9238 28.6148 96.079 30.3209 93.4852 30.3209Z" fill="#5A4EEC"/>
<path d="M119.708 12.6912H115.699V7.58675H109.79V12.6912H106.877V17.1298H109.79V28.2264C109.762 32.4015 112.606 34.4682 116.892 34.2879C118.418 34.2324 119.5 33.9272 120.096 33.7331L119.167 29.336C118.876 29.3915 118.251 29.5302 117.697 29.5302C116.518 29.5302 115.699 29.0864 115.699 27.4496V17.1298H119.708V12.6912Z" fill="#5A4EEC"/>
<path d="M133.038 34.4127C138.308 34.4127 141.859 31.8466 142.692 27.8935L137.227 27.5328C136.63 29.1557 135.104 30.0018 133.135 30.0018C130.18 30.0018 128.308 28.0461 128.308 24.8697V24.8558H142.816V23.2329C142.816 15.9924 138.433 12.4138 132.802 12.4138C126.532 12.4138 122.468 16.8663 122.468 23.441C122.468 30.196 126.477 34.4127 133.038 34.4127ZM128.308 21.1939C128.432 18.7666 130.277 16.8246 132.899 16.8246C135.465 16.8246 137.24 18.6556 137.254 21.1939H128.308Z" fill="#5A4EEC"/>
</svg>
