<svg width="30" height="15" viewBox="0 0 30 15" fill="none" xmlns="http://www.w3.org/2000/svg">
<path d="M12.1788 3.24999C13.173 4.45517 13.7271 5.96304 13.7497 7.52522C13.7724 9.0874 13.2623 10.6107 12.3035 11.8442C11.3447 13.0778 9.99428 13.9479 8.4748 14.3114C6.95532 14.6748 5.35736 14.5099 3.94414 13.8438C2.53092 13.1776 1.38674 12.05 0.700072 10.6466C0.0134015 9.24328 -0.174802 7.6479 0.166463 6.12328C0.507728 4.59866 1.35811 3.23575 2.57752 2.25904C3.79694 1.28233 5.31265 0.750095 6.875 0.749993L23.125 0.749995C24.6873 0.750097 26.2031 1.28234 27.4225 2.25904C28.6419 3.23575 29.4923 4.59866 29.8335 6.12328C30.1748 7.6479 29.9866 9.24329 29.2999 10.6466C28.6133 12.05 27.4691 13.1776 26.0559 13.8438C24.6426 14.5099 23.0447 14.6748 21.5252 14.3114C20.0057 13.9479 18.6553 13.0778 17.6965 11.8442C16.7377 10.6107 16.2276 9.0874 16.2503 7.52522C16.2729 5.96304 16.827 4.45517 17.8212 3.24999L12.1788 3.24999ZM23.125 3.24999C21.9647 3.24999 20.8519 3.71093 20.0314 4.5314C19.2109 5.35187 18.75 6.46467 18.75 7.62499C18.75 8.78532 19.2109 9.89811 20.0314 10.7186C20.8519 11.5391 21.9647 12 23.125 12C24.2853 12 25.3981 11.5391 26.2186 10.7186C27.0391 9.89811 27.5 8.78532 27.5 7.62499C27.5 6.46467 27.0391 5.35187 26.2186 4.5314C25.3981 3.71093 24.2853 3.24999 23.125 3.24999ZM6.875 3.24999C5.71468 3.24999 4.60188 3.71093 3.78141 4.5314C2.96093 5.35187 2.5 6.46467 2.5 7.62499C2.5 8.78531 2.96093 9.89811 3.78141 10.7186C4.60188 11.5391 5.71468 12 6.875 12C8.03532 12 9.14812 11.5391 9.96859 10.7186C10.7891 9.89811 11.25 8.78532 11.25 7.62499C11.25 6.46467 10.7891 5.35187 9.96859 4.5314C9.14812 3.71093 8.03532 3.24999 6.875 3.24999Z" fill="black"/>
</svg>
