<svg width="52" height="52" viewBox="0 0 52 52" fill="none" xmlns="http://www.w3.org/2000/svg">
<rect width="52" height="52" rx="10" fill="#5A4EEC"/>
<path d="M26 21C28.1217 21 30.1566 21.8428 31.6569 23.3431C33.1571 24.8434 34 26.8783 34 29C34 31.1217 33.1571 33.1566 31.6569 34.6568C30.1566 36.1571 28.1217 37 26 37C23.8783 37 21.8434 36.1571 20.3431 34.6568C18.8429 33.1566 18 31.1217 18 29C18 26.8783 18.8429 24.8434 20.3431 23.3431C21.8434 21.8428 23.8783 21 26 21ZM26 24.5L24.677 27.18L21.72 27.61L23.86 29.695L23.355 32.641L26 31.25L28.645 32.64L28.14 29.695L30.28 27.609L27.323 27.179L26 24.5ZM27 15.999L32 16V19L30.637 20.138C29.5059 19.5446 28.2711 19.1748 27 19.049V16V15.999ZM25 15.999V19.049C23.7293 19.1746 22.4948 19.544 21.364 20.137L20 19V16L25 15.999Z" fill="white"/>
</svg>
