<svg width="52" height="52" viewBox="0 0 52 52" fill="none" xmlns="http://www.w3.org/2000/svg">
<rect width="52" height="52" rx="10" fill="#5A4EEC"/>
<path d="M36 22C36.5304 22 37.0391 22.2107 37.4142 22.5858C37.7893 22.9609 38 23.4696 38 24V28C38 28.5304 37.7893 29.0391 37.4142 29.4142C37.0391 29.7893 36.5304 30 36 30H34.938C34.6942 31.9333 33.7533 33.7112 32.2917 35C30.8302 36.2888 28.9486 37 27 37V35C28.5913 35 30.1174 34.3679 31.2426 33.2426C32.3679 32.1174 33 30.5913 33 29V23C33 21.4087 32.3679 19.8826 31.2426 18.7574C30.1174 17.6321 28.5913 17 27 17C25.4087 17 23.8826 17.6321 22.7574 18.7574C21.6321 19.8826 21 21.4087 21 23V30H18C17.4696 30 16.9609 29.7893 16.5858 29.4142C16.2107 29.0391 16 28.5304 16 28V24C16 23.4696 16.2107 22.9609 16.5858 22.5858C16.9609 22.2107 17.4696 22 18 22H19.062C19.306 20.0669 20.2471 18.2893 21.7086 17.0007C23.1701 15.7121 25.0516 15.0011 27 15.0011C28.9484 15.0011 30.8299 15.7121 32.2914 17.0007C33.7529 18.2893 34.694 20.0669 34.938 22H36ZM22.76 29.785L23.82 28.089C24.7731 28.686 25.8754 29.0018 27 29C28.1246 29.0018 29.2269 28.686 30.18 28.089L31.24 29.785C29.9693 30.5812 28.4995 31.0023 27 31C25.5005 31.0023 24.0307 30.5812 22.76 29.785Z" fill="white"/>
</svg>
